<svg xmlns="http://www.w3.org/2000/svg" viewBox="0 0 132.11 182.87"><defs><style>.cls-1{fill:#c4c4ff;}</style></defs><title>Asset 1</title><g id="Layer_2" data-name="Layer 2"><g id="Layer_2-2" data-name="Layer 2"><path class="cls-1" d="M130.84,145.67a140.47,140.47,0,0,1-29.15-33,158.4,158.4,0,0,1-17-37.37,102.45,102.45,0,0,0,5.7-9.53A80,80,0,0,0,99.7,33c.39-8.18-1.16-16.61-5.48-23.58C90.94,4.1,85.35-.48,79.14,0c-4.83.41-9,3.9-11.3,8.18s-3,9.23-3.1,14.08c-.33,11.06,1.79,22,4.5,32.78,1.8,7.11,3.86,14.17,6.29,21.1q-.79,1.2-1.61,2.38c-2.81,4.07-5.86,8.06-8.84,12.25l-1.2,1.69q-1.17-5.83-2.37-11.63Q59.06,69,56.4,57.22C53.85,45.9,51.46,34.39,47,23.63,43.62,15.39,37.45,7.09,28.3,5.06c-8.61-1.91-18,.78-23.34,8C-3.62,24.69,0,41,7.76,52c9.49,13.37,23.45,22.85,37,31.62a9.08,9.08,0,0,0,2.83.9c1.37.21,2.39,0,.92-1.47C42,76.59,35.45,70.17,29.26,63.39s-12.82-14-16.21-22.8c-2.9-7.49-3.14-19.5,5.5-23.4,6.15-2.78,12.55.87,16.24,5.83A49.51,49.51,0,0,1,40.5,33.95c8.92,21.62,13.84,44.62,17.2,67.7l-1.24,1.94A304.32,304.32,0,0,0,40.52,132c-3.34,6.86-6.26,14-6.53,21.72-.46,13.18,5.83,29.94,21.53,29.14,12.12-.62,17.72-12,18.66-22.73.6-6.87-.59-13.64-1.63-20.4-2-12.62-4.35-25.25-6.8-37.81,1.58-2.42,3.19-4.81,4.86-7.16,2.57-3.6,5.24-7.11,7.87-10.66a163.34,163.34,0,0,0,11.69,23.78c9.79,16.27,23,30.72,39.41,40.34.67.4,1.59.77,2.18.26C132.62,147.73,131.71,146.39,130.84,145.67ZM63.58,156c-.18,6.44-1.85,18.31-11.19,15.91-6.78-1.74-9.17-10.79-9.23-16.86-.08-7.28,2.35-14.43,5.27-21a235.49,235.49,0,0,1,10.76-21.5c.88,6.94,1.68,14,2.45,21.07C62.43,141,63.79,148.61,63.58,156ZM77.78,47.8A148.08,148.08,0,0,1,75,29.73c-.41-5.74-1.3-12.54,2.48-17.41a4.61,4.61,0,0,1,1.87-1.57c2-.78,4.11.93,5.39,2.68,7.27,10,6.11,24,3.36,35.34a77.09,77.09,0,0,1-6.25,16.64C80.27,59.59,78.94,53.69,77.78,47.8Z"/></g></g></svg>
