<svg xmlns="http://www.w3.org/2000/svg" viewBox="0 0 46.79 63.98"><defs><style>.cls-1{fill:#c4c4ff;}</style></defs><title>Asset 1</title><g id="Layer_2" data-name="Layer 2"><g id="Layer_2-2" data-name="Layer 2"><path class="cls-1" d="M46,49.6a46.47,46.47,0,0,1-9.67-10.95,51.88,51.88,0,0,1-5.5-12c.67-1,1.23-2,1.72-2.92a28.25,28.25,0,0,0,3.27-11.53,14.84,14.84,0,0,0-2-8.57A7,7,0,0,0,28.16,0l-.41,0a6,6,0,0,0-4.63,3.3A11.89,11.89,0,0,0,22,8.53a41.54,41.54,0,0,0,1.55,11.39c.61,2.42,1.27,4.64,2,6.77l-.26.38c-.54.78-1.11,1.56-1.68,2.34l-.37.5-.35-1.7c-.55-2.67-1.14-5.38-1.74-8l-.22-1a64.45,64.45,0,0,0-3-10.57c-.9-2.19-3-6-7.05-6.89a9.48,9.48,0,0,0-2.06-.23A8.41,8.41,0,0,0,1.89,4.84C-1.37,9.25,0,15.23,2.83,19.2c3.25,4.59,7.92,7.81,12.82,11a4,4,0,0,0,1.35.45,2.79,2.79,0,0,0,.41,0,1.21,1.21,0,0,0,1.21-.72l0,0c.32,1.7.61,3.47.89,5.33l-.22.35a104,104,0,0,0-5.45,9.72,19.33,19.33,0,0,0-2.31,7.77c-.09,2.7.62,6.43,2.91,8.79a6.84,6.84,0,0,0,5,2.13h.42c4.83-.25,6.94-4.8,7.27-8.62a27.54,27.54,0,0,0-.48-6.63l-.08-.53c-.61-3.81-1.35-7.89-2.23-12.45q.68-1,1.4-2.05c.53-.74,1.06-1.46,1.6-2.19a55.3,55.3,0,0,0,3.35,6.57,40,40,0,0,0,13.71,14,2,2,0,0,0,1,.31,1.35,1.35,0,0,0,.89-.33,1.32,1.32,0,0,0,.46-1A2.08,2.08,0,0,0,46,49.6ZM18.17,28.43l-.28-.28c-2.08-2-4.22-4.16-6.23-6.37s-4.2-4.6-5.28-7.39c-.83-2.14-1-5.62,1.34-6.66A2.62,2.62,0,0,1,8.8,7.5,4.29,4.29,0,0,1,12,9.4a16.06,16.06,0,0,1,1.81,3.49,83.16,83.16,0,0,1,4.6,15.83A2.44,2.44,0,0,0,18.17,28.43ZM19.57,58.5a2.15,2.15,0,0,1-1-.21c-1.61-.7-1.88-3.22-1.9-4.73a16.78,16.78,0,0,1,1.7-6.7c.72-1.61,1.42-3.09,2.12-4.46.14,1.23.29,2.55.45,4,.07.65.15,1.31.24,2a36.33,36.33,0,0,1,.42,5.48C21.53,55.24,21.32,58.35,19.57,58.5ZM29.89,17.3c-.23.93-.5,1.85-.81,2.76.12-.34-.35-1.46-.44-1.86q-.25-1.1-.47-2.21a51.9,51.9,0,0,1-1-7.07c-.07-1.1-.11-4.24,1.81-3.07a2.73,2.73,0,0,1,1,1.7A19.54,19.54,0,0,1,29.89,17.3Z"/></g></g></svg>
